<svg xmlns="http://www.w3.org/2000/svg" xmlns:xlink="http://www.w3.org/1999/xlink" version="1.1" x="0px" y="0px" viewBox="0 0 100 125" enable-background="new 0 0 100 100" xml:space="preserve"><circle cx="82.552" cy="16.756" r="6.882"/><path d="M90.789,25.245H74.694c-4.714,0-8.618,3.844-8.618,8.645v22.293c0,0.112-0.001,0.209,0.008,0.315  c-0.402,7.789-2.757,12.874-6.149,12.874c-6.234,0-7.165-9.565-7.165-15.269v-6.338l2.001,1.377  c1.549,0.964,2.788,0.985,3.777,0.447c0.969-0.528,1.517-1.25,1.885-2.205c0.411-1.066,0.329-2.309-0.886-4.256l-6.46-10.754  l6.315-8.059l-6.008,3.051l2.938-6.65L37.574,32.425V32.34c0-5.206-3.813-9.442-8.5-9.442h-9.61c-4.687,0-8.5,4.236-8.5,9.442v4.138  c-0.029,0-0.056-0.006-0.085-0.006c-5.63,0-10.21,6.284-10.21,14.007c0,7.723,4.58,14.006,10.21,14.006  c0.114,0,0.224-0.019,0.336-0.022v8.688h5.129l0.001-10.864c1.106-0.967,2.067-2.216,2.83-3.677l-0.002,26.505  c0,2.646,1.327,4.876,3.972,4.876c2.646,0,3.607-2.217,3.607-4.835V65.293h6.172v19.864c0,2.618,1.145,4.835,3.791,4.835  c2.646,0,3.972-2.23,3.972-4.876V51.938l6.431-8.059l3.761,2.587v7.638c0,11.064,3.215,17.158,9.055,17.158  c4.192,0,7.047-4.608,7.872-12.302c1.642,0.649,3.855-0.274,3.855-2.777V34.434h2.273l0.018,51.887c0,2.061,1.67,3.732,3.729,3.732  c2.066,0,3.735-1.672,3.735-3.732l-0.012-29.21h2.671l-0.012,29.21c0,2.061,1.67,3.732,3.736,3.732c2.06,0,3.729-1.672,3.729-3.732  l0.017-51.887h2.273v21.749c0,3.975,5.587,3.975,5.587,0V33.889C99.408,29.088,95.504,25.245,90.789,25.245z M10.879,39.307  c0.006,0,0.012,0.001,0.018,0.001L10.819,49.69H3.53C3.799,43.898,6.989,39.307,10.879,39.307z M10.879,61.652  c-3.605,0-6.609-3.941-7.246-9.128h9.999l0.093-12.35c2.658,1.69,4.529,5.672,4.529,10.305  C18.255,56.64,14.946,61.652,10.879,61.652z M18.432,39.175c-0.389,0.112-0.769,0.253-1.139,0.421  c-1.021-1.135-2.205-2.003-3.494-2.533V32.34c0-3.232,2-5.924,4.633-6.493V39.175z M27.273,38.847l-6.007-0.001V25.732h6.007V38.847  z M34.74,34.194l-4.633,2.892V25.848c2.632,0.569,4.633,3.262,4.633,6.493V34.194z"/><text x="0" y="115" fill="#000000" font-size="5px" font-weight="bold" font-family="'Helvetica Neue', Helvetica, Arial-Unicode, Arial, Sans-serif">Created by Luis Prado</text><text x="0" y="120" fill="#000000" font-size="5px" font-weight="bold" font-family="'Helvetica Neue', Helvetica, Arial-Unicode, Arial, Sans-serif">from the Noun Project</text></svg>